<svg xmlns="http://www.w3.org/2000/svg" width="28.311" height="28.311" viewBox="0 0 28.311 28.311">
  <path id="ic_perm_phone_msg_24px" d="M4.573,22.66a17.868,17.868,0,0,0,5.615-.9,1.605,1.605,0,0,1,1.6.377l3.46,3.46A23.709,23.709,0,0,0,25.617,15.252l-3.46-3.476a1.544,1.544,0,0,1-.393-1.589,17.867,17.867,0,0,0,.9-5.615A1.577,1.577,0,0,1,24.233,3h5.5a1.577,1.577,0,0,1,1.573,1.573A26.735,26.735,0,0,1,4.573,31.31,1.577,1.577,0,0,1,3,29.738v-5.5A1.577,1.577,0,0,1,4.573,22.66ZM17.155,3V18.728L12.437,14.01H3V3Z" transform="translate(-3 -3)" fill="#fff"/>
</svg>
