<svg xmlns="http://www.w3.org/2000/svg" width="52.575" height="45" viewBox="0 0 52.575 45">
  <defs>
    <style>
      .cls-1 {
        fill: #fff;
      }
    </style>
  </defs>
  <g id="Сгруппировать_1019" data-name="Сгруппировать 1019" transform="translate(-495.892 -1348.477)">
    <g id="Сгруппировать_1008" data-name="Сгруппировать 1008" transform="translate(526.996 1366.531)">
      <path id="Контур_3186" data-name="Контур 3186" class="cls-1" d="M818.021,1535.075l-7.337-4.645a1.239,1.239,0,1,0-1.326,2.093l5.767,3.651-5.692,3.985a1.239,1.239,0,1,0,1.421,2.03l7.217-5.052a1.238,1.238,0,0,0-.048-2.062Z" transform="translate(-808.781 -1530.236)"/>
    </g>
    <g id="Сгруппировать_1009" data-name="Сгруппировать 1009" transform="translate(507.544 1366.532)">
      <path id="Контур_3187" data-name="Контур 3187" class="cls-1" d="M622.734,1530.821a1.24,1.24,0,0,0-1.71-.384l-7.339,4.646a1.238,1.238,0,0,0-.046,2.062l7.217,5.051a1.239,1.239,0,1,0,1.421-2.031l-5.692-3.983,5.764-3.652A1.237,1.237,0,0,0,622.734,1530.821Z" transform="translate(-613.109 -1530.245)"/>
    </g>
    <g id="Сгруппировать_1010" data-name="Сгруппировать 1010" transform="translate(495.892 1348.477)">
      <path id="Контур_3188" data-name="Контур 3188" class="cls-1" d="M544.744,1348.477h-45.13a3.737,3.737,0,0,0-3.722,3.743v5.86a1.235,1.235,0,0,0,1.232,1.239h50.111a1.235,1.235,0,0,0,1.232-1.239v-5.86A3.738,3.738,0,0,0,544.744,1348.477Zm1.259,8.364H498.356v-4.621a1.262,1.262,0,0,1,1.257-1.265h45.13A1.264,1.264,0,0,1,546,1352.22Z" transform="translate(-495.892 -1348.477)"/>
    </g>
    <g id="Сгруппировать_1011" data-name="Сгруппировать 1011" transform="translate(495.892 1362.107)">
      <path id="Контур_3189" data-name="Контур 3189" class="cls-1" d="M547.235,1484.652a1.23,1.23,0,0,0-1.232,1.229v26.428a1.259,1.259,0,0,1-1.259,1.254H499.615a1.257,1.257,0,0,1-1.259-1.254v-26.428a1.232,1.232,0,0,0-2.464,0v26.428a3.723,3.723,0,0,0,3.723,3.713h45.129a3.723,3.723,0,0,0,3.723-3.713v-26.428A1.23,1.23,0,0,0,547.235,1484.652Z" transform="translate(-495.892 -1484.652)"/>
    </g>
    <g id="Сгруппировать_1012" data-name="Сгруппировать 1012" transform="translate(518.81 1363.825)">
      <path id="Контур_3190" data-name="Контур 3190" class="cls-1" d="M727.57,1520.88a1.239,1.239,0,0,0,1.193-.9l4.259-15.178a1.239,1.239,0,0,0-2.386-.67l-4.259,15.178a1.238,1.238,0,0,0,.857,1.528A1.267,1.267,0,0,0,727.57,1520.88Z" transform="translate(-726.329 -1503.224)"/>
    </g>
    <g id="Сгруппировать_1013" data-name="Сгруппировать 1013" transform="translate(500.529 1352.446)">
      <path id="Контур_3191" data-name="Контур 3191" class="cls-1" d="M543.513,1388.131a1.3,1.3,0,1,0,1.3,1.3A1.3,1.3,0,0,0,543.513,1388.131Z" transform="translate(-542.218 -1388.131)"/>
    </g>
    <g id="Сгруппировать_1014" data-name="Сгруппировать 1014" transform="translate(505.275 1352.446)">
      <path id="Контур_3192" data-name="Контур 3192" class="cls-1" d="M591.484,1388.131a1.3,1.3,0,1,0,1.3,1.3A1.3,1.3,0,0,0,591.484,1388.131Z" transform="translate(-590.189 -1388.131)"/>
    </g>
    <g id="Сгруппировать_1015" data-name="Сгруппировать 1015" transform="translate(510.048 1352.446)">
      <path id="Контур_3193" data-name="Контур 3193" class="cls-1" d="M639.455,1388.131a1.3,1.3,0,1,0,1.3,1.3A1.3,1.3,0,0,0,639.455,1388.131Z" transform="translate(-638.159 -1388.131)"/>
    </g>
    <g id="Сгруппировать_1016" data-name="Сгруппировать 1016" transform="translate(501.882 1384.778)">
      <path id="Контур_3194" data-name="Контур 3194" class="cls-1" d="M556.973,1713.672a1.239,1.239,0,1,0,0,2.478H561a1.239,1.239,0,1,0,0-2.478Z" transform="translate(-555.734 -1713.672)"/>
    </g>
    <g id="Сгруппировать_1017" data-name="Сгруппировать 1017" transform="translate(529.777 1384.778)">
      <path id="Контур_3195" data-name="Контур 3195" class="cls-1" d="M849.138,1713.672H838.606a1.239,1.239,0,1,0,0,2.478h10.532a1.239,1.239,0,1,0,0-2.478Z" transform="translate(-837.367 -1713.672)"/>
    </g>
    <g id="Сгруппировать_1018" data-name="Сгруппировать 1018" transform="translate(535.663 1379.888)">
      <path id="Контур_3196" data-name="Контур 3196" class="cls-1" d="M902.055,1664.154h-4.646a1.239,1.239,0,1,0,0,2.478h4.646a1.239,1.239,0,1,0,0-2.478Z" transform="translate(-896.17 -1664.154)"/>
    </g>
  </g>
</svg>
